<svg width="50" height="52" viewBox="0 0 50 52" fill="none" xmlns="http://www.w3.org/2000/svg">
<path d="M49.9854 0H0.0146484C0.00655833 0 0 0.00682066 0 0.0152344V51.9848C0 51.9932 0.00655833 52 0.0146484 52H49.9854C49.9934 52 50 51.9932 50 51.9848V0.0152344C50 0.00682066 49.9934 0 49.9854 0Z" fill="#10B981"/>
<path d="M34.8828 30.1539C33.2227 30.1539 31.6602 29.4227 30.2539 28.2344L30.5957 26.5484L30.6055 26.4875C30.918 24.7 31.8848 21.6937 34.8828 21.6937C37.1289 21.6937 38.9551 23.593 38.9551 25.9289C38.9551 28.2648 37.1289 30.1539 34.8828 30.1539ZM34.8828 17.4078C31.0547 17.4078 28.0957 19.9875 26.8848 24.243C25.0488 21.3687 23.6523 17.9258 22.8418 15.0211H18.7207V26.1625C18.7207 28.3664 17.002 30.1539 14.8828 30.1539C12.7637 30.1539 11.0449 28.3664 11.0449 26.1625V15.0109H6.93359V26.1523C6.93359 30.7125 10.498 34.4602 14.8828 34.4602C19.2676 34.4602 22.832 30.7125 22.832 26.1523V24.2836C23.6328 26.0203 24.6094 27.7773 25.8008 29.3211L23.2812 41.6508H27.4902L29.3164 32.7133C30.918 33.7797 32.7539 34.45 34.8633 34.45C39.375 34.45 43.0469 30.6109 43.0469 25.9086C43.0566 21.2266 39.3945 17.4078 34.8828 17.4078Z" fill="#111827"/>
</svg>
